Coordinates
version=1
nRows=30
nColumns=23
inDegrees=yes

Units are S.I. units (second, meters, Newtons, ...)
If the header above contains a line with 'inDegrees', this indicates whether rotational values are in degrees (yes) or radians (no).

endheader
time	pelvis_tilt	pelvis_list	pelvis_rotation	pelvis_tx	pelvis_ty	pelvis_tz	hip_flexion_r	hip_adduction_r	hip_rotation_r	knee_angle_r	knee_angle_r_beta	ankle_angle_r	subtalar_angle_r	mtp_angle_r	hip_flexion_l	hip_adduction_l	hip_rotation_l	knee_angle_l	knee_angle_l_beta	ankle_angle_l	subtalar_angle_l	mtp_angle_l
      0.00000000	      7.42807434	      3.25126056	      9.61458586	      1.88460935	      0.84182840	      1.01711162	     31.25759684	    -13.37101702	    -10.48119262	    102.82419265	      1.79462071	     -5.83493306	    -14.40522015	      0.00000000	    -11.58522466	      6.01309363	      5.58716098	     33.79278464	      0.58979536	     20.56742331	      3.51914422	      0.00000000
      0.00666667	      6.65356141	      2.95420377	      9.30197673	      1.88557335	      0.84407746	      1.01665237	     34.25764448	    -12.85842369	     -9.94849287	     99.65635493	      1.73933151	     -6.07784577	    -15.37989877	      0.00000000	    -13.94373784	      5.33229245	      4.99018762	     31.34175168	      0.54701676	     17.94782686	      4.28600360	      0.00000000
      0.01333333	      6.47824587	      2.17804445	      9.40492057	      1.88691141	      0.84713342	      1.01555324	     35.85457823	    -11.97978025	    -10.24063430	     95.82304805	      1.67242769	     -6.14309749	    -16.19693427	      0.00000000	    -17.05014043	      4.01968726	      4.80337425	     28.46060579	      0.49673128	     14.81270537	      4.64765413	      0.00000000
      0.02000000	      5.96211665	      1.41214833	      9.40664743	      1.88822230	      0.84936433	      1.01463177	     37.63954642	    -11.01331001	    -10.31806939	     91.84506631	      1.60299881	     -5.94815712	    -16.69018055	      0.00000000	    -19.70478897	      2.83200988	      4.40895155	     25.60251709	      0.44684822	     11.48734823	      5.15734556	      0.00000000
      0.02666667	      5.22497554	      0.58359971	      9.41134055	      1.88949955	      0.85106032	      1.01382359	     39.40728286	     -9.93551811	    -10.33876290	     87.63006384	      1.52943314	     -5.68288151	    -17.02506269	      0.00000000	    -21.90216817	      1.65158831	      3.90577265	     22.99183278	      0.40128318	      7.96121577	      5.65217497	      0.00000000
      0.03333333	      4.31169997	     -0.23488918	      9.41612833	      1.89077367	      0.85233416	      1.01309616	     41.10089624	     -8.86673345	    -10.29168448	     83.19165496	      1.45196829	     -5.28203396	    -16.99762738	      0.00000000	    -23.61837879	      0.54040857	      3.28568162	     20.78782471	      0.36281599	      4.28451668	      6.07139932	      0.00000000
      0.04000000	      2.80695908	     -0.76348679	      9.17169861	      1.89184660	      0.85249863	      1.01286610	     43.36662222	     -7.90415519	     -9.67383614	     78.74262313	      1.37431804	     -4.72432642	    -16.48637477	      0.00000000	    -24.22084738	     -0.12285189	      2.20080946	     19.47416105	      0.33988823	      0.56032755	      6.62278762	      0.00000000
      0.04666667	      2.10919686	     -1.67546896	      9.24855835	      1.89319493	      0.85405957	      1.01220894	     44.11474971	     -6.73100846	     -9.70670822	     73.62612008	      1.28501821	     -4.17927760	    -15.84619604	      0.00000000	    -25.46386724	     -1.30020211	      1.53767498	     18.30675515	      0.31951315	     -3.12179262	      6.38691288	      0.00000000
      0.05333333	      1.03365534	     -2.21581405	      9.03380491	      1.89437993	      0.85488923	      1.01203496	     45.15193813	     -5.70494549	     -9.14228694	     68.50070388	      1.19556282	     -3.41456724	    -14.58995607	      0.00000000	    -25.80506545	     -1.96284666	      0.48257642	     18.11382884	      0.31614595	     -6.70959010	      6.03488095	      0.00000000
      0.06000000	     -0.36600365	     -2.44940908	      8.73724129	      1.89548111	      0.85510646	      1.01207898	     46.31795995	     -4.93499614	     -8.24724140	     63.35673173	      1.10578357	     -2.53731457	    -12.84145579	      0.00000000	    -25.22155387	     -2.27851068	     -0.67458661	     19.04965525	      0.33247921	     -9.95545381	      5.23988203	      0.00000000
      0.06666667	     -0.78980816	     -2.89688862	      8.45683126	      1.89672035	      0.85663520	      1.01199858	     45.95170391	     -3.86763272	     -7.62157273	     57.79914647	      1.00878541	     -1.55960417	    -10.64324820	      0.00000000	    -25.42600330	     -2.88767402	     -1.85419208	     20.35951159	      0.35534051	    -12.91204968	      3.57154821	      0.00000000
      0.07333333	     -0.87339448	     -3.30333788	      8.26857057	      1.89801938	      0.85845527	      1.01176271	     44.88278275	     -2.95775588	     -7.22940904	     52.15024586	      0.91019350	     -0.64981029	     -8.08049289	      0.00000000	    -25.55548142	     -3.53743617	     -2.98172522	     22.47300247	      0.39222789	    -15.41315521	      1.45079762	      0.00000000
      0.08000000	     -1.02046184	     -3.46978724	      7.93974436	      1.89924140	      0.85977389	      1.01180983	     43.74660346	     -2.16442410	     -6.55943671	     46.72966660	      0.81558654	      0.13340642	     -5.41022436	      0.00000000	    -25.18491055	     -3.92676945	     -4.11239990	     25.50598100	      0.44516335	    -17.23668111	     -1.14658792	      0.00000000
      0.08666667	     -0.95543821	     -3.54846242	      7.59094559	      1.90037726	      0.86096819	      1.01195161	     42.23225531	     -1.45887348	     -5.94225771	     41.57531117	      0.72562607	      0.68940654	     -2.75794630	      0.00000000	    -24.69144403	     -4.26669581	     -5.11351210	     29.22610086	      0.51009169	    -18.49694963	     -4.19665449	      0.00000000
      0.09333333	     -0.69175249	     -3.53336822	      7.19190146	      1.90147292	      0.86197017	      1.01217886	     40.44385778	     -0.84905255	     -5.42446519	     36.89405447	      0.64392272	      0.96510617	     -0.20862320	      0.00000000	    -24.13586631	     -4.48816815	     -5.87061842	     33.47854114	      0.58431077	    -19.15694852	     -7.53288767	      0.00000000
      0.10000000	     -0.46895128	     -3.39969964	      6.69813882	      1.90239160	      0.86242236	      1.01261012	     38.76941620	     -0.35375930	     -4.94745512	     32.92952426	      0.57472862	      0.96045100	      1.97390543	      0.00000000	    -23.25631181	     -4.52862961	     -6.41956525	     38.24136514	      0.66743773	    -19.38926388	    -10.94684617	      0.00000000
      0.10666667	      0.13714133	     -3.33518293	      6.23343429	      1.90324642	      0.86301265	      1.01296250	     36.71189226	      0.12915042	     -4.92786137	     29.65643322	      0.51760240	      0.67736377	      3.88732535	      0.00000000	    -22.59830846	     -4.60984492	     -6.74578294	     43.22015675	      0.75433404	    -19.36538505	    -14.27702551	      0.00000000
      0.11333333	      0.61007132	     -3.20177443	      5.63869049	      1.90385565	      0.86299405	      1.01354682	     34.99886301	      0.55479059	     -5.02100168	     27.36367807	      0.47758628	      0.22312766	      5.24631737	      0.00000000	    -21.57255229	     -4.52938706	     -6.99606649	     48.48628030	      0.84624523	    -19.15674743	    -17.21395666	      0.00000000
      0.12000000	      1.15730575	     -3.04557406	      4.80070179	      1.90423988	      0.86263311	      1.01443353	     33.41556454	      1.03351889	     -5.18926234	     26.05063149	      0.45466929	     -0.21136613	      6.17650660	      0.00000000	    -20.50672102	     -4.33337526	     -7.42335318	     53.81547516	      0.93925723	    -18.85555144	    -19.65153834	      0.00000000
      0.12666667	      1.71654289	     -3.12494126	      4.14707695	      1.90455823	      0.86209943	      1.01506820	     31.84059018	      1.56544183	     -5.88915696	     25.40696347	      0.44343517	     -0.78882466	      6.40226257	      0.00000000	    -19.24003827	     -4.45596203	     -7.73674925	     59.21975445	      1.03357970	    -18.76049961	    -21.53777484	      0.00000000
      0.13333333	      2.33301388	     -3.22764208	      3.34213805	      1.90464790	      0.86125818	      1.01587468	     30.32566266	      2.15310537	     -6.57833822	     25.54658163	      0.44587196	     -1.16645224	      6.08635386	      0.00000000	    -17.94036369	     -4.60657148	     -8.25247817	     64.53705082	      1.12638403	    -18.64057121	    -22.78655685	      0.00000000
      0.14000000	      3.14820061	     -3.32658166	      2.34886271	      1.90448533	      0.86025380	      1.01682523	     28.72362896	      2.75089745	     -7.18818853	     26.45776312	      0.46177508	     -1.20141444	      5.42428446	      0.00000000	    -16.82545803	     -4.74850733	     -9.00251826	     69.61755477	      1.21505555	    -18.59375890	    -23.70193859	      0.00000000
      0.14666667	      3.17720955	     -3.47589770	      1.35901251	      1.90396810	      0.85800070	      1.01789574	     27.98339932	      3.43071182	     -7.30618592	     27.81640392	      0.48548783	     -1.00513408	      3.73523370	      0.00000000	    -14.59689080	     -5.06214816	     -9.73896547	     74.84765212	      1.30633797	    -18.30633480	    -23.61852841	      0.00000000
      0.15333333	      3.78966902	     -3.79541574	      0.38340868	      1.90334441	      0.85622893	      1.01872570	     26.54657143	      4.16571573	     -7.62303962	     29.52722782	      0.51534734	     -0.15828895	      2.48821340	      0.00000000	    -13.03767966	     -5.62674435	    -10.56792273	     79.60902247	      1.38943956	    -18.29180192	    -23.79413992	      0.00000000
      0.16000000	      3.71033206	     -3.90122886	     -0.83067441	      1.90215578	      0.85327689	      1.01988467	     25.95309489	      4.84329730	     -7.12389595	     31.68621834	      0.55302884	      1.01820849	      0.59333081	      0.00000000	    -10.55429342	     -6.04030139	    -11.52555559	     84.30888732	      1.47146767	    -17.87278695	    -23.31544531	      0.00000000
      0.16666667	      3.86579990	     -4.15390388	     -1.96837884	      1.90075880	      0.85057071	      1.02080737	     24.96354451	      5.59443537	     -6.59916762	     33.88065297	      0.59132895	      2.78332968	     -0.85462477	      0.00000000	     -8.26005024	     -6.71285981	    -12.42234677	     88.64166434	      1.54708890	    -17.54164227	    -22.97187776	      0.00000000
      0.17333333	      3.88924177	     -4.38349214	     -3.08664731	      1.89910268	      0.84774715	      1.02163738	     24.03233601	      6.28937631	     -5.87494816	     36.12814117	      0.63055502	      4.92041972	     -2.08578528	      0.00000000	     -5.70302157	     -7.44261947	    -13.21012291	     92.64061218	      1.61688370	    -17.13781051	    -22.63605072	      0.00000000
      0.18000000	      4.00197593	     -4.74750028	     -4.13283824	      1.89724499	      0.84520586	      1.02233274	     22.81234315	      7.02820764	     -5.15626565	     38.18341778	      0.66642636	      7.29678698	     -2.76586551	      0.00000000	     -3.14925549	     -8.45066808	    -13.88918380	     96.28103665	      1.68042110	    -16.61158729	    -22.20212008	      0.00000000
      0.18666667	      3.94807447	     -5.00506217	     -5.06992189	      1.89516388	      0.84273795	      1.02283250	     21.66700951	      7.57182979	     -4.33519329	     40.12684877	      0.70034563	      9.87624317	     -3.12281447	      0.00000000	     -0.21562536	     -9.37606894	    -14.29428666	     99.55591538	      1.73757851	    -16.04334252	    -21.82633257	      0.00000000
      0.19333333	      4.51855608	     -5.47563236	     -5.68025777	      1.89321443	      0.84160766	      1.02285808	     19.47525666	      8.10289054	     -3.67166604	     41.48622246	      0.72407118	     12.20694020	     -3.25144584	      0.00000000	      2.11263008	    -10.44468808	    -14.29182069	    102.22098129	      1.78409269	    -15.76626475	    -21.93401575	      0.00000000
